<?xml version="1.0" standalone="no"?><!DOCTYPE svg PUBLIC "-//W3C//DTD SVG 1.1//EN" "http://www.w3.org/Graphics/SVG/1.1/DTD/svg11.dtd"><svg t="1708589262495" class="icon" viewBox="0 0 1024 1024" version="1.1" xmlns="http://www.w3.org/2000/svg" p-id="7842" xmlns:xlink="http://www.w3.org/1999/xlink" width="64" height="64"><path d="M781.504 227.136l55.936-55.936-22.592-22.656a32 32 0 0 1 45.248-45.248l90.496 90.496a32 32 0 1 1-45.248 45.248l-22.656-22.592-55.744 55.744a416 416 0 1 1-723.2 191.488 32 32 0 1 1 62.784 12.288 352 352 0 1 0 75.264-157.632 32 32 0 0 1-49.088-40.96A415.104 415.104 0 0 1 512 128c102.848 0 196.928 37.312 269.504 99.136zM544 544H704a32 32 0 1 1 0 64H512a31.872 31.872 0 0 1-32-32V320a32 32 0 0 1 64 0v224z" fill="#BB9871" p-id="7843"></path></svg>